# xmcd
#
# Track frame offsets:
#	150
#	24190
#	40765
#	63415
#	79365
#	93225
#	111620
#	127070
#	145120
#	160215
#	174765
#	190875
#	212795
#	228265
#	247045
#	265610
#	283985
#	309110
#	325085
#	342710
#
# Disc length: 4750 seconds
#
# Revision: 0
# Processed by: cddbd v1.5.1PL0 Copyright (c) Steve Scherf et al.
# Submitted via: dBpowerAMP V4.0
#
DISCID=1f128c14
DTITLE=Various Artist - Back To My Roots
DYEAR=2005
DGENRE=Blues
TTITLE0=Odyssey - Going Back To My Roots
TTITLE1=Kool and The Gang - She's Fresh
TTITLE2=Womack and Womack - Teardrops
TTITLE3=Gwen Guthrie - Ain't Nothing Going On But The Rent
TTITLE4=Chic - Good Times
TTITLE5=Shalamar - A Night To Remember
TTITLE6=imagination - Just An illusion
TTITLE7=Mark Morrison - Return Of The Mack
TTITLE8=The Gap Band - Oops Upside Your Head
TTITLE9=Joyce Sims - Come into My Life
TTITLE10=Slave - Just A Touch Of Love
TTITLE11=Jenny Burton - Bad Habits
TTITLE12=Drizabone - Real Love
TTITLE13=Zhane - Hey Mr. DJ
TTITLE14=Patrice Rushen - Forget Me Nots
TTITLE15=Luther Vandross - Never Too Much
TTITLE16=Change - The Glow Of Love
TTITLE17=Sister Sledge - He's The Greatest Dancer
TTITLE18=Labelle - Lady Marmalade
TTITLE19=Cheryl Lynn - To Be Real
EXTD=Ripped by djsherz*
EXTT0=
EXTT1=
EXTT2=
EXTT3=
EXTT4=
EXTT5=
EXTT6=
EXTT7=
EXTT8=
EXTT9=
EXTT10=
EXTT11=
EXTT12=
EXTT13=
EXTT14=
EXTT15=
EXTT16=
EXTT17=
EXTT18=
EXTT19=
PLAYORDER=
